<svg xmlns="http://www.w3.org/2000/svg" height="250.05" viewBox="0 0 249.99999 250.05123" width="250"><g stroke="#002878"><path d="m248.34 125.1c0 67.962-55.058 123.03-122.99 123.03-67.911 0-122.98-55.071-122.98-123.03 0-67.905 55.064-122.98 122.98-122.98 67.93 0 122.99 55.083 122.99 122.98z" stroke-width="2.0366" fill="#fff"/><path d="m214.27 125.11c0 49.089-39.745 88.834-88.776 88.834-49.025 0-88.783-39.745-88.783-88.834 0-49.025 39.758-88.776 88.783-88.776 49.031 0 88.776 39.751 88.776 88.776zm29.71-0.0128c0 65.503-53.06 118.56-118.5 118.56-65.465 0-118.54-53.06-118.54-118.56 0-65.452 53.079-118.52 118.54-118.52 65.439 0 118.5 53.072 118.5 118.52z" stroke-width="4.0859" fill="none"/><path d="m214.12 63.213l-0.33 0.236c0.55 0.756 1.33 1.141 1.42 1.276 0.06 0.102 0.04 0.191-0.32 0.416l-7.8 5.181c-1.06 0.711-1.39 0.588-2-0.347l-0.31 0.199 2.43 3.65 0.29-0.199c-0.64-0.967-0.56-1.306 0.47-2.004l10.07-6.654-0.21-0.34c-0.86 0.013-2.23-0.588-3.71-1.414zm7.13 10.937c-0.44 0.025-0.9 0.145-1.35 0.366-1.36 0.678-2.18 2.101-2.22 4.004-1.95-1.345-3.31-1.686-4.69-1-1.74 0.858-2.27 2.921-1.27 4.97 1 2.03 3.22 2.906 5.09 1.99 1.38-0.685 2.23-2.03 2.57-4.271 1.73 1.21 3 1.153 3.96 0.666 1.6-0.794 2.12-2.753 1.22-4.553-0.72-1.465-1.97-2.246-3.31-2.172zm0.74 0.973c0.82-0.036 1.61 0.425 2.03 1.275 0.66 1.32 0.05 2.743-1.48 3.498-0.97 0.474-1.97 0.634-3.11-0.199 0.17-2.6 0.66-3.829 1.74-4.367 0.27-0.126 0.54-0.195 0.82-0.207zm-6.76 3.106c0.77-0.015 1.54 0.273 2.28 0.853-0.06 2.235-0.66 3.811-1.91 4.406-1.22 0.609-2.56 0.122-3.19-1.146-0.71-1.403-0.06-3.017 1.43-3.76 0.46-0.228 0.93-0.345 1.39-0.353zm11.64 9.263l-0.39 0.133c0.36 0.89 1 1.441 1.06 1.607 0.03 0.096-0.01 0.206-0.4 0.34l-8.85 3.035c-1.21 0.41-1.51 0.212-1.87-0.851l-0.35 0.115 1.43 4.164 0.33-0.135c-0.38-1.101-0.23-1.403 0.96-1.806l11.43-3.912-0.13-0.391c-0.81-0.199-2.01-1.12-3.22-2.299zm4.11 12.538l-0.08 0.4c0.96 0.23 1.66 0.94 1.83 1.86 0.27 1.31-0.54 2.5-1.85 2.77-1.47 0.29-3.02-0.31-4.23-3.42l-0.39 0.09c0.09 0.37 0.28 1.04 0.33 1.34 0.5 2.38-1.67 3.72-2.94 3.99-1.88 0.37-3.13-0.87-3.46-2.39-0.18-0.91-0.05-1.71 0.56-2.86l-0.33-0.22c-0.86 1.3-1.08 2.26-0.8 3.63 0.52 2.48 2.54 3.87 5 3.35 1.83-0.38 2.96-1.74 3.07-3.71l0.03-0.01c1.3 1.87 2.84 1.89 3.61 1.74 1.69-0.35 2.69-2.01 2.32-3.86-0.32-1.48-1.35-2.52-2.67-2.7z" stroke-width="1.0503" fill="#002878"/></g><path fill="#002878" d="m123.57 14.898l-0.02 0.616c1.47 0.192 2.25 0.358 2.17 2.394l-0.25 7.756c-0.07 2.069-0.87 2.177-2.34 2.274l-0.02 0.601 11.37 0.385 1.22-3.74-0.65-0.039c-1.16 2.587-1.35 2.972-3.06 2.908l-2.5-0.084c-1.3-0.039-1.68-0.307-1.63-1.453l0.3-8.53c0.04-1.818 0.59-2.159 2.32-2.236l0.03-0.627-6.94-0.225zm-12.87 0.889c-0.56-0.012-1.12 0.021-1.69 0.104-4.52 0.672-7.39 4.445-6.84 8.236 0.54 3.567 4.15 6.616 9.04 5.893 4.91-0.718 7.62-4.625 7.09-8.231-0.54-3.592-3.75-5.918-7.6-6.002zm31.76 0.449l-0.12 0.596c1.4 0.436 2.13 0.738 1.73 2.717l-1.6 7.607c-0.4 2.011-1.2 1.993-2.67 1.852l-0.12 0.576 11.12 2.318 1.86-3.484-0.63-0.135c-1.58 2.338-1.83 2.69-3.5 2.338l-2.46-0.5c-1.27-0.262-1.6-0.602-1.37-1.717l1.75-8.349c0.37-1.787 0.95-2.032 2.66-1.821l0.13-0.601-6.78-1.397zm-32.36 0.219c2.09 0.022 4.69 1.23 5.37 5.713 0.72 4.957-2 6.878-4.33 7.211-3.18 0.474-5.57-1.711-6.13-5.592-0.52-3.541 0.67-6.744 4.24-7.275 0.27-0.04 0.55-0.06 0.85-0.057zm-16.645 2.9l-0.519 0.2c-0.244 0.313-0.36 0.518-0.635 0.601-0.224 0.096-0.558 0.14-0.801 0.192-0.653 0.083-2.062 0.308-3.24 0.724-3.555 1.3-5.956 5.56-4.528 9.428 1.076 2.933 4.772 5.719 9.383 4.021 3.997-1.46 4.484-4.214 4.656-5.207l-0.576-0.16c-0.883 3.062-3.26 3.934-3.625 4.075-2.433 0.877-5.803-0.045-7.269-4.041-1.031-2.806-0.679-6.496 2.638-7.7 1.006-0.371 2.402-0.614 4.151 0.5 0.627 0.397 0.997 0.852 1.599 1.658l0.526-0.205-1.76-4.086zm66.995 1.237l-0.22 0.564c1.46 0.718 1.96 1.158 1.23 2.977l-2.85 7.213c-0.74 1.915-1.37 1.843-2.96 1.369l-0.21 0.564 10.82 4.283 1.58-2.228-0.61-0.23c-1.47 1.492-2.73 1.088-3.67 0.736l-1.96-0.774c-1.33-0.531-1.6-0.634-0.75-2.754l1.26-3.234 2.27 0.902c2 0.782 1.63 1.788 1.42 2.543l0.55 0.225 1.68-4.215-0.56-0.224c-0.35 0.672-0.86 1.658-2.79 0.896l-2.27-0.889 2.15-5.437 3.04 1.191c1.13 0.449 2.49 0.972 2.15 2.957l0.59 0.233 0.74-2.473-10.63-4.195zm19.69 10.183c-2.56 0.099-4.71 1.46-5.76 3.125-1.33 2.075-2.37 6.809 3.41 10.485 0.27 0.173 2.47 1.518 4.27 2.203l1.68-2.647c0.55-0.877 1.6-1.19 2.35-0.716l0.64 0.404 0.32-0.514-6.3-3.988-0.33 0.512 0.66 0.429c1.52 0.942 1.03 1.901 0.63 2.536l-0.47 0.755c-0.71 1.115-1.78 1.114-3.19 0.217-2.71-1.729-3.06-5.328-1.06-8.453 1.83-2.875 5.11-4.117 7.75-2.439 1.19 0.749 2.2 2.023 2.48 3.38 0.18 0.833-0.04 1.659-0.38 2.594l0.51 0.309 2.19-3.819-0.53-0.326c-0.25 0.013-0.61 0.038-1.06-0.244-0.24-0.154-0.43-0.313-0.56-0.447-1.16-1.114-1.46-1.389-2.36-1.959-1.68-1.059-3.36-1.455-4.89-1.397zm-113.01 0.614l-3.977 2.843 0.338 0.5c0.57-0.275 1.109-0.486 1.486 0.039 0.257 0.353 0.276 0.865 0.276 1.038l0.051 4.412-3.918-1.453c-0.961-0.365-1.076-0.404-1.287-0.692-0.301-0.448-0.066-0.666 0.658-1.357l-0.338-0.5-5.361 3.849 0.345 0.493c0.615-0.385 1.569-0.974 3.701-0.206l5.118 1.833 2.093 2.933c1.211 1.678 0.673 2.26-0.441 3.24l0.353 0.481 5.827-4.196-0.358-0.5c-1.415 0.903-2.159 1.217-3.369-0.46l-2.107-2.934-0.065-5.449c0-2.338 0.623-2.882 1.334-3.426l-0.359-0.488zm58.357 9.127c-46.715 0-84.609 37.863-84.609 84.604 0 46.79 37.894 84.66 84.609 84.66 46.74 0 84.64-37.87 84.64-84.66 0-46.741-37.9-84.604-84.64-84.604zm70.88 0.23l-0.43 0.436c1.1 1.236 1.41 1.799 0.06 3.234l-5.3 5.654c-1.41 1.48-1.97 1.205-3.26 0.174l-0.42 0.447 8.51 7.961 2.27-1.478-0.47-0.436c-1.92 0.846-2.96 0.007-3.69-0.666l-1.54-1.455c-1.05-0.973-1.24-1.165 0.32-2.83l2.35-2.529 1.78 1.658c1.57 1.473 0.87 2.281 0.37 2.902l0.44 0.409 3.1-3.317-0.42-0.404c-0.58 0.487-1.42 1.249-2.92-0.192l-1.78-1.658 4.02-4.265 2.38 2.228c0.89 0.826 1.94 1.831 0.89 3.541l0.46 0.43 1.61-2.024-8.33-7.82zm-145.89 5.379c-1.084 0.046-2.52 0.624-4.191 2.357l-4.707 4.873 0.441 0.411c1.127-0.942 1.762-1.429 3.235 0l5.584 5.392c1.479 1.448 1.076 2.127 0.013 3.389l0.411 0.416 4.597-4.752c3.369-3.497 3.369-5.795 1.877-7.236-1.934-1.851-4.272-0.245-5.598 0.658 0.577-0.954 1.87-3.322 0.237-4.885-0.286-0.276-0.783-0.548-1.455-0.611-0.14-0.013-0.289-0.019-0.444-0.012zm-1.791 1.83c0.744-0.088 1.431 0.179 2.02 0.746 1.018 0.986 1.484 2.477-0.578 4.604l-0.903 0.935-3.951-3.824 1.043-1.082c0.823-0.849 1.626-1.291 2.369-1.379zm5.037 4.219c0.673 0 1.391 0.246 2.081 0.914 1.204 1.172 1.389 2.868-0.34 4.668-1.063 1.114-1.66 0.891-2.723-0.121l-2.971-2.883 1.307-1.352c0.528-0.548 1.525-1.227 2.646-1.226zm-18.728 10.014l-3.9 5.732 0.5 0.346c0.947-1.134 1.525-1.71 3.203-0.557l6.416 4.342c1.71 1.159 1.389 1.902 0.691 3.189l0.5 0.332 6.359-9.4-2.503-3.049-0.379 0.525c1.562 2.357 1.806 2.709 0.826 4.137l-1.403 2.088c-0.71 1.05-1.146 1.242-2.087 0.602l-7.071-4.789c-1.505-1.032-1.504-1.667-0.646-3.172l-0.506-0.326zm-3.744 13.294c-2.888 0.106-5.643 2.116-7.022 5.272-1.851 4.201-0.172 8.64 3.319 10.184 3.304 1.453 7.812-0.001 9.785-4.522 2.011-4.534 0.148-8.908-3.195-10.375-0.947-0.416-1.925-0.594-2.887-0.559zm-1.432 2.35c0.913 0.043 1.959 0.289 3.147 0.814 4.585 2.005 4.737 5.33 3.802 7.495-1.287 2.926-4.405 3.797-7.998 2.209-3.272-1.429-5.347-4.151-3.906-7.45 0.663-1.498 2.216-3.198 4.955-3.068zm-10.924 17.939l-0.115 0.571c0.128 0.346 0.237 0.55 0.186 0.832-0.064 0.243-0.198 0.545-0.282 0.775-0.269 0.596-0.846 1.91-1.109 3.131-0.788 3.69 1.511 7.99 5.578 8.86 3.029 0.66 7.36-0.97 8.391-5.8 0.884-4.166-1.192-6.043-1.922-6.697l-0.461 0.366c2.126 2.401 1.594 4.871 1.498 5.261-0.538 2.52-3.118 4.88-7.268 3.99-2.939-0.61-5.86-2.88-5.117-6.34 0.224-1.047 0.761-2.368 2.631-3.245 0.692-0.327 1.256-0.384 2.262-0.467l0.109-0.557-4.381-0.68zm210.27 34.449c-1.55 0-2.81 1.27-2.81 2.82 0 1.57 1.26 2.82 2.81 2.82 1.58 0 2.84-1.25 2.84-2.82 0-1.56-1.26-2.83-2.84-2.82zm-207.22 1.43c-1.537 0-2.824 1.27-2.824 2.86 0 1.55 1.287 2.81 2.824 2.81 1.576 0 2.85-1.26 2.85-2.81 0-1.59-1.274-2.86-2.85-2.86zm208.77 22.45c-0.5 1.18-0.96 1.27-2.7 1.31l-8.5 0.18-0.43 1.37 6.63 5.18c1.5 1.17 1.63 1.49 1.53 2.5l0.45 0.14 1.02-3.1-0.44-0.17c-0.16 0.31-0.56 0.98-1.22 0.75-0.14-0.05-0.43-0.17-0.63-0.38l-1.69-1.31 1.11-3.32 2.32-0.06c0.18-0.01 0.56 0 0.77 0.07 0.54 0.19 0.43 0.78 0.3 1.35l0.42 0.14 1.49-4.5-0.43-0.15zm-199.23 2.01l-0.435 0.17c0.281 1.05 0.39 1.63-1.077 2.19l-5.539 2.07c-1.485 0.56-1.799 0.06-2.279-0.91l-0.416 0.16 2.94 7.86 2.996-0.24-0.153-0.44c-2.152-0.05-2.473-0.05-2.927-1.26l-0.641-1.73c-0.339-0.88-0.269-1.21 0.551-1.54l6.103-2.29c1.307-0.5 1.704-0.23 2.242 0.93l0.448-0.16-1.813-4.81zm193.59 1.14l-0.95 2.92-3.61-2.85 4.56-0.07zm-8.93 7.82l-2.19 4.66 0.43 0.21c0.55-0.95 0.89-1.41 2.3-0.75l5.38 2.52c1.43 0.68 1.28 1.23 0.93 2.28l0.4 0.18 2.2-4.65-0.42-0.2c-0.54 0.94-0.89 1.41-2.33 0.74l-5.38-2.53c-1.41-0.65-1.26-1.23-0.89-2.26l-0.43-0.2zm-179.7 3.52l-0.408 0.23c0.442 1 0.639 1.57-0.725 2.33l-3.619 2.03c-0.64 0.38-1.44 0.83-1.939 1.67-0.327 0.56-0.884 2.01 0.134 3.84 1.032 1.81 2.426 1.98 3.688 2.16l-1.645 0.94 1.743 3.05 0.402-0.23c-0.455-1-0.641-1.57 0.736-2.33l5.157-2.94c1.364-0.78 1.721-0.31 2.375 0.58l0.404-0.23-2.549-4.52-0.34 0.2c0.506 1.14 0.552 1.6-0.787 2.34l-4.822 2.77c-1.006-0.1-2.556-0.27-3.414-1.79-0.34-0.6-0.474-1.54 0.07-2.48 0.365-0.58 0.987-1.09 2.107-1.71l3.184-1.81c1.345-0.78 1.729-0.32 2.363 0.57l0.403-0.25-2.518-4.42zm175.18 4.64l-0.23 0.37c0.04 0.5 0.08 0.83-0.4 1.59l-3.01 4.81c-0.47 0.76-0.77 0.89-1.25 1.06l-0.23 0.4 2.67 1.76 0.23-0.37c-0.46-0.39-1.6-1.27-0.66-2.75l0.84-1.33 6.36 3.95c1.33 0.84 1.13 1.4 0.65 2.37l0.39 0.23 2.73-4.4-0.39-0.24c-0.66 0.85-1.05 1.28-2.39 0.44l-6.37-3.94 0.85-1.34c0.93-1.5 2.21-0.87 2.77-0.63l0.2-0.34-2.76-1.64zm-166.4 9.97l-0.371 0.3c0.512 0.86 0.602 1.22 0.25 2.73l-1.062 4.25-3.914-0.05c-1.288 0-1.793-0.11-2.651-0.94l-0.365 0.28 2.49 3.08 0.365-0.3c-0.198-0.35-0.461-0.88-0.025-1.23 0.154-0.12 0.616-0.19 1.09-0.21l2.836 0.03-0.576 2.54c-0.212 0.9-0.219 1.01-0.45 1.19-0.512 0.41-0.973-0.01-1.222-0.27l-0.352 0.3 3.041 3.72 0.34-0.28c-0.384-0.7-0.448-0.91-0.045-2.54l1.115-4.68 3.112 0.02c1.396 0 2.222 0 3.189 1.2l0.365-0.3-2.394-2.95-0.371 0.29c0.115 0.17 0.358 0.57 0.025 0.84-0.282 0.23-0.673 0.27-1.096 0.28l-2.638-0.02 0.634-2.67c0.148-0.63 0.173-0.76 0.397-0.92 0.314-0.27 0.679 0.05 0.846 0.21l0.371-0.28-2.934-3.62zm159.03 2.35l-2.72 3.1 0.35 0.3c0.78-0.75 1.29-1.12 2.44-0.09l4.19 3.64-10.74 0.46-2.05 2.32 0.36 0.29c1.51-1.21 2.11-0.66 2.95 0.06l4.1 3.62c1.2 1.04 0.91 1.51 0.29 2.42l0.34 0.3 2.83-3.24-0.36-0.28-0.39 0.44c-0.75 0.86-1.59 0.31-2.16-0.18l-4.56-4 11.69-0.65 0.27-0.32-6.26-5.46c-1.16-1.03-0.86-1.55-0.22-2.44l-0.35-0.29zm-12.38 13.22l-6.52 5.37 0.3 0.37c1-0.67 1.46-0.84 2.41 0.31l3.78 4.56c0.99 1.2 0.74 1.61-0.14 2.45l0.3 0.37 6.63-5.5-0.93-1.85-0.37 0.31c0.48 1.52-0.22 2.21-0.78 2.69l-1.21 0.98c-0.79 0.66-0.97 0.81-2.08-0.54l-1.69-2.06 1.39-1.14c1.22-1.01 1.77-0.39 2.19 0.04l0.36-0.29-2.23-2.68-0.35 0.29c0.33 0.48 0.8 1.18-0.37 2.15l-1.39 1.16-2.84-3.45 1.84-1.54c0.69-0.56 1.52-1.25 2.71-0.29l0.37-0.31-1.38-1.4zm-138.28 0.51c-0.525 0-0.929 0.41-0.929 0.93s0.411 0.94 0.929 0.94c0.513 0 0.936-0.42 0.936-0.94s-0.43-0.93-0.936-0.93zm8.647 2.22l-0.283 0.39c0.544 0.54 0.704 0.72 0.896 1.33l-4.566 5.18c-1.057 1.15-1.632 1.14-2.586 0.68l-0.264 0.38 2.984 2.16 0.27-0.35c-0.813-0.89-0.698-1.59 0.109-2.47l4.157-4.65-2.358 9.05 0.391 0.3 7.986-4.99-3.068 5.13-0.448 0.66c-0.742 1.01-1.184 0.79-2.074 0.36l-0.263 0.38 4.029 2.93 0.262-0.37c-0.775-0.74-1.16-1.11-0.161-2.8l2.608-4.41c0.057-0.09 0.504-0.78 0.568-0.9 0.583-0.77 1.429-0.33 1.903-0.09l0.283-0.37-2.633-1.9-7.16 4.44 2.107-8.11-2.689-1.96zm119.28 5.34l-4.32 2.79 0.25 0.4c0.96-0.52 1.51-0.72 2.37 0.57l3.21 4.98c0.86 1.34 0.4 1.74-0.42 2.41l0.24 0.4 4.33-2.8-0.25-0.38c-0.96 0.5-1.51 0.71-2.38-0.61l-3.22-5c-0.84-1.3-0.4-1.7 0.43-2.37l-0.24-0.39zm-103.86 5.03l-0.205 0.41c1.044 0.64 1.365 0.99 0.699 2.32l-2.639 5.31c-0.685 1.41-1.147 1.34-2.287 0.89l-0.211 0.42 7.731 3.82 1.318-1.6-0.428-0.21c-1.191 1.04-2.113 0.68-2.779 0.36l-1.391-0.68c-0.948-0.47-1.133-0.57-0.365-2.14l1.178-2.37 1.609 0.8c1.435 0.71 1.094 1.45 0.863 2.02l0.405 0.18 1.543-3.11-0.405-0.19c-0.301 0.49-0.749 1.21-2.113 0.54l-1.613-0.8 1.978-4.03 2.166 1.08c0.801 0.4 1.786 0.88 1.364 2.35l0.435 0.2 0.731-1.82-7.584-3.75zm95.27 0.18l-0.38 0.17c-0.16 0.25-0.23 0.4-0.4 0.51-0.17 0.07-0.42 0.14-0.59 0.2-0.49 0.09-1.5 0.36-2.32 0.77-2.52 1.19-3.95 4.57-2.57 7.4 1.04 2.16 4.01 4.04 7.29 2.44 2.83-1.38 2.94-3.51 2.99-4.25l-0.43-0.09c-0.38 2.36-2.08 3.19-2.34 3.31-1.71 0.84-4.3 0.38-5.72-2.55-0.99-2.09-1.04-4.88 1.32-6.01 0.71-0.34 1.72-0.63 3.1 0.1 0.51 0.27 0.81 0.59 1.31 1.15l0.38-0.2-1.64-2.95zm-82.954 5.66l-0.135 0.45c1.742 0.89 1.492 1.67 1.172 2.71l-1.638 5.22c-0.462 1.49-1.039 1.45-2.083 1.23l-0.14 0.44 4.092 1.27 0.134-0.45-0.55-0.16c-1.128-0.35-0.96-1.33-0.723-2.07l1.811-5.78 5.316 10.44 0.404 0.12 2.444-7.92c0.47-1.5 1.08-1.43 2.11-1.22l0.15-0.44-3.93-1.21-0.141 0.44c1.012 0.45 1.564 0.71 1.09 2.21l-1.627 5.31-4.803-9.66-2.953-0.93zm69.384 0.39l-0.4 0.13c-0.06 0.11-0.19 0.34-0.47 0.42-0.14 0.05-0.17 0.07-1.02 0.08-0.33-0.01-0.64 0.06-1 0.19-1.8 0.6-2.35 2.22-1.91 3.55 0.48 1.45 1.88 1.87 3.1 2.14 2.19 0.46 3.12 0.68 3.48 1.84 0.38 1.08-0.34 2.03-1.23 2.34-1.59 0.51-2.79-0.64-3.59-2.11l-0.42 0.16 1.07 3.18 0.43-0.14c0-0.14 0-0.4 0.31-0.51 0.16-0.05 0.33-0.05 0.45-0.04 1.14 0.18 1.51 0.04 1.94-0.09 2.01-0.66 2.63-2.58 2.19-3.9-0.37-1.13-1.34-2.01-3.44-2.49-2.53-0.56-3.05-0.68-3.34-1.53-0.22-0.66 0.1-1.64 1.2-2.01 1.41-0.47 2.51 0.26 3.22 1.77l0.4-0.13-0.97-2.85zm-52.36 3.85l-0.53 3.2 0.41 0.05c0.18-0.58 0.51-1.97 2.25-1.72l1.57 0.22-1.04 7.42c-0.23 1.56-0.82 1.58-1.91 1.53l-0.05 0.47 5.1 0.71 0.08-0.45c-1.03-0.25-1.59-0.44-1.37-2.01l1.07-7.42 1.54 0.24c1.72 0.24 1.7 1.67 1.69 2.27l0.4 0.07 0.39-3.22-0.44-0.05c-0.45 0.26-0.72 0.41-1.62 0.3l-5.62-0.8c-0.88-0.11-1.13-0.36-1.47-0.74l-0.45-0.07zm29.31 1.52l-0.42 0.04c-0.11 0.08-0.27 0.27-0.56 0.29-0.17 0.01-0.19 0.01-1.03-0.16-0.32-0.08-0.64-0.08-1.01-0.06-1.88 0.14-2.81 1.6-2.7 2.99 0.13 1.52 1.37 2.24 2.51 2.8 2.02 1.01 2.82 1.43 2.93 2.63 0.09 1.14-0.83 1.91-1.77 1.98-1.66 0.14-2.55-1.28-2.96-2.89l-0.45 0.03 0.27 3.35 0.45-0.02c0.05-0.15 0.08-0.42 0.42-0.42 0.17-0.02 0.34 0 0.44 0.07 1.08 0.43 1.47 0.41 1.91 0.36 2.11-0.16 3.17-1.85 3.07-3.24-0.1-1.18-0.82-2.29-2.77-3.23-2.31-1.17-2.77-1.4-2.84-2.29-0.07-0.73 0.46-1.59 1.64-1.69 1.46-0.11 2.36 0.85 2.68 2.51l0.41-0.03-0.22-3.02zm-15.58 0.59l-0.03 0.46c1.09 0.13 1.66 0.26 1.63 1.8l-0.13 5.93c-0.05 1.59-0.63 1.68-1.73 1.77v0.46l5.15 0.11 0.01-0.45c-1.07-0.12-1.65-0.26-1.61-1.84l0.13-5.93c0.04-1.56 0.61-1.64 1.71-1.73v-0.47l-5.13-0.11zm25.6 2.12c-0.52 0-0.93 0.43-0.93 0.95 0 0.51 0.41 0.94 0.93 0.94 0.53 0 0.94-0.43 0.94-0.94 0-0.52-0.42-0.95-0.94-0.95z"/><path d="m201.52 145.76-39.9-15.63c0.0128-0.0576 0.0192-0.12168 0.032-0.17292l42.595-4.6431-42.576-4.7584c-0.006-0.0576-0.0192-0.12168-0.0256-0.17291l39.937-15.498-42.326 6.4235c-0.0256-0.0769-0.0448-0.1409-0.0768-0.21775l34.532-25.271-39.239 17.176c-0.0384-0.0576-0.0768-0.10887-0.12168-0.16011l26.828-33.373-33.45 26.732c-0.0576-0.03843-0.10887-0.07685-0.1601-0.12168l17.272-39.175-25.367 34.442c-0.0704-0.02562-0.13449-0.05123-0.20493-0.07685l6.5388-42.294-15.614 39.892c-0.0641-0.01281-0.12809-0.02562-0.18573-0.03202l-4.6367-42.576-4.752 42.569c-0.064 0.01281-0.12808 0.01921-0.18572 0.03202l-15.498-39.937 6.4171 42.332c-0.0641 0.03202-0.13449 0.05123-0.19854 0.07685l-25.271-34.547 17.191 39.271c-0.0448 0.03843-0.0961 0.07685-0.13449 0.10887l-33.405-26.841 26.764 33.488c-0.03843 0.0512-0.07685 0.10247-0.11528 0.1473l-39.221-17.3 34.5 25.41c-0.02562 0.064-0.04483 0.12168-0.06404 0.17292l-42.352-6.5452 39.95 15.633c-0.0064 0.0512-0.01921 0.10247-0.02562 0.15371l-42.653 4.6431 42.653 4.7648c0.0064 0.0576 0.01281 0.10887 0.02562 0.16011l-39.995 15.518 42.39-6.4299c0.02562 0.0576 0.04483 0.12169 0.07045 0.17292l-34.596 25.361 39.322-17.24c0.03202 0.0448 0.06404 0.0897 0.09606 0.13449l-26.885 33.475 33.52-26.815c0.0448 0.0256 0.0833 0.0576 0.12168 0.0897l-17.298 39.284 25.406-34.538c0.064 0.032 0.12809 0.0448 0.17932 0.0705l-6.5516 42.384 15.626-39.969c0.0576 0.0128 0.11528 0.0192 0.16651 0.032l4.6495 42.672 4.752-42.653c0.0576-0.006 0.11528-0.0192 0.17291-0.032l15.511 40.001-6.4299-42.39c0.0576-0.0256 0.12168-0.0448 0.17291-0.0704l25.303 34.596-17.189-39.316c0.0448-0.032 0.0897-0.0704 0.13449-0.10247l33.43 26.898-26.776-33.526c0.0384-0.0512 0.0705-0.10247 0.10888-0.14089l39.239 17.336-34.494-25.431c0.032-0.0704 0.0512-0.13449 0.0769-0.19853l42.307 6.5324z" fill="#fff"/></svg>
